<svg width="252" height="220" viewBox="0 0 252 220" fill="none" xmlns="http://www.w3.org/2000/svg">
<path d="M190.642 21.8213L147.183 97.0037C143.699 103.055 148.1 110.757 155.068 110.757H241.986C248.955 110.757 253.355 103.238 249.871 97.0037L206.412 21.8213C202.928 15.5867 194.126 15.5867 190.642 21.8213Z" fill="#7258A6"/>
<path d="M44.6786 21.8213L1.21952 97.0037C-2.26455 103.055 2.13637 110.757 9.1045 110.757H95.8393C102.807 110.757 107.208 103.238 103.724 97.0037L60.4486 21.8213C56.9645 15.5867 48.1627 15.5867 44.6786 21.8213Z" fill="#7258A6"/>
<path d="M60.4485 215.462L103.908 140.279C107.392 134.228 102.991 126.526 96.0226 126.526H9.1045C2.13637 126.526 -2.26455 134.045 1.21952 140.279L44.6786 215.462C48.1626 221.513 56.9645 221.513 60.4485 215.462Z" fill="#7258A6"/>
<path d="M206.412 215.462L249.871 140.279C253.355 134.228 248.955 126.526 241.986 126.526H155.252C148.283 126.526 143.883 134.045 147.367 140.279L190.826 215.462C194.126 221.513 202.928 221.513 206.412 215.462Z" fill="#7258A6"/>
<path d="M133.431 88.9353L176.89 13.7529C180.374 7.70161 175.973 0 169.005 0H82.0865C75.1184 0 70.7175 7.51824 74.2015 13.7529L117.661 88.9353C121.145 94.9865 129.947 94.9865 133.431 88.9353Z" fill="#AC90E3"/>
</svg>
