<?xml version="1.0" standalone="no"?>
<!DOCTYPE svg PUBLIC "-//W3C//DTD SVG 20010904//EN"
 "http://www.w3.org/TR/2001/REC-SVG-20010904/DTD/svg10.dtd">
<svg version="1.0" xmlns="http://www.w3.org/2000/svg"
 width="840.000000pt" height="660.000000pt" viewBox="0 0 840.000000 660.000000"
 preserveAspectRatio="xMidYMid meet">

<g transform="translate(0.000000,660.000000) scale(0.100000,-0.100000)"
fill="#000000" stroke="none">
<path d="M200 6090 l0 -109 53 -16 c28 -8 194 -57 367 -108 l315 -92 3 -2521
2 -2520 -370 -109 -370 -108 0 -109 0 -108 1130 0 1130 0 0 109 0 108 -102 30
c-57 17 -223 66 -371 109 l-267 78 2 2520 3 2520 315 93 c173 51 339 100 368
108 l52 16 0 109 0 110 -1130 0 -1130 0 0 -110z"/>
<path d="M3110 6091 l0 -110 58 -16 c31 -9 197 -58 367 -108 l310 -92 3 -2521
2 -2521 -370 -108 -370 -109 0 -108 0 -108 1130 0 1130 0 0 110 c0 61 -2 110
-4 110 -15 0 -722 212 -728 218 -5 5 -7 1139 -6 2522 l3 2513 365 108 365 107
3 111 3 111 -1131 0 -1130 0 0 -109z"/>
<path d="M6027 6193 c-4 -3 -7 -52 -7 -109 l0 -102 53 -16 c28 -8 195 -57 369
-108 l318 -93 0 -2522 c0 -1388 -2 -2523 -5 -2523 -10 0 -690 -200 -712 -210
-22 -9 -23 -15 -23 -115 l0 -105 1090 0 1091 0 -3 122 -3 122 -322 94 -323 95
0 2521 0 2521 325 95 325 95 0 122 0 123 -1083 0 c-596 0 -1087 -3 -1090 -7z"/>
</g>
</svg>
