<svg id="SvgjsSvg1001" width="288" height="288" xmlns="http://www.w3.org/2000/svg" version="1.1" xmlns:xlink="http://www.w3.org/1999/xlink" xmlns:svgjs="http://svgjs.com/svgjs"><defs id="SvgjsDefs1002"></defs><g id="SvgjsG1008"><svg xmlns="http://www.w3.org/2000/svg" fill="none" viewBox="0 0 941 941" width="288" height="288"><mask style="mask-type:alpha" id="a" width="941" height="941" x="0" y="0" maskUnits="userSpaceOnUse"><circle cx="470.5" cy="470.5" r="470.5" fill="#ffe9ff" class="colorAD3B8F svgShape"></circle></mask><g mask="url(#a)" fill="#ffffff" class="color000 svgShape"><circle cx="470.5" cy="470.5" r="470.5" fill="#ffe9ff" class="colorAD3B8F svgShape"></circle><path fill="url(#b)" d="M199 761L373 937.5L555.697 976.138C561.439 977.353 567.412 976.856 572.874 974.71L760.5 901L901.5 765L929 630.5L488.5 186L769.5 756.5L199 761Z"></path><path fill="url(#c)" d="M457.5 187L195 731L457.5 591V187Z"></path><path fill="url(#d)" d="M465 604L218 742.5L725.5 743L465 604Z"></path><path fill="url(#e)" d="M740 733.5L473 188L476.5 591.5L740 733.5Z"></path></g><defs><linearGradient id="b" x1="199" x2="967" y1="334.5" y2="921" gradientUnits="userSpaceOnUse"><stop stop-color="#ff8fe0" class="stopColorFF8FE0 svgShape"></stop><stop offset="1" stop-color="#ad3b8f" class="stopColorAD3B8F svgShape"></stop></linearGradient><linearGradient id="c" x1="310" x2="789" y1="487.5" y2="731" gradientUnits="userSpaceOnUse"><stop stop-color="#ff82dc" class="stopColorFF82DC svgShape"></stop><stop offset="1" stop-color="#85196a" class="stopColor85196A svgShape"></stop></linearGradient><linearGradient id="d" x1="668.5" x2="-70.5" y1="703" y2="696.5" gradientUnits="userSpaceOnUse"><stop stop-color="#ff8fe0" class="stopColorFF8FE0 svgShape"></stop><stop offset="1" stop-color="#ad3b8f" class="stopColorAD3B8F svgShape"></stop></linearGradient><linearGradient id="e" x1="335" x2="898" y1="-124" y2="987.5" gradientUnits="userSpaceOnUse"><stop stop-color="#ff8fe0" class="stopColorFF8FE0 svgShape"></stop><stop offset="1" stop-color="#ad3b8f" class="stopColorAD3B8F svgShape"></stop></linearGradient></defs></svg></g></svg>