<svg width="366" height="361" viewBox="0 0 366 361" fill="none" xmlns="http://www.w3.org/2000/svg">
<path fill-rule="evenodd" clip-rule="evenodd" d="M77.4 292.995C77.7 295.695 77.9 298.695 77.9 301.795C77.9 313.395 75.8 322.395 71.5 328.695C67.2 334.895 61.1 337.995 53 337.995C44.9 337.995 38.7 334.895 34.4 328.695L34.3 328.595L77.4 292.995ZM71.6 275.295L28.4 310.895C28.1 308.095 27.9 304.995 27.9 301.795C27.9 290.195 30 281.195 34.3 274.995C38.6 268.695 44.8 265.595 52.9 265.595C60.9 265.595 67.1 268.695 71.4 274.995C71.5 275.195 71.5 275.295 71.6 275.295ZM102.5 324.995C104.8 317.895 105.9 310.195 105.9 301.795C105.9 293.395 104.8 285.695 102.5 278.595C100.3 271.495 97 265.295 92.5 260.095C88.1 254.795 82.5 250.695 75.9 247.795C69.3 244.795 61.7 243.295 53 243.295C44.4 243.295 36.9 244.795 30.3 247.795C23.7 250.695 18.2 254.795 13.7 260.095C9.20001 265.295 5.70001 271.495 3.40001 278.595C1.10001 285.695 0 293.395 0 301.795C0 310.195 1.10001 317.895 3.40001 324.995C5.80001 332.095 9.20001 338.295 13.7 343.495C18.2 348.695 23.8 352.795 30.3 355.795C36.9 358.795 44.5 360.295 53 360.295C61.7 360.295 69.4 358.795 75.9 355.795C82.6 352.795 88.1 348.695 92.5 343.495C97 338.295 100.3 332.095 102.5 324.995ZM179.9 245.995H210.7L171.1 355.795H140.9L101.6 245.995H133.8L156.6 326.995L179.9 245.995ZM248.2 245.995H219.1V355.795H248.2V245.995ZM294.2 300.195L256.8 355.795H291.6L310.7 322.795L329.6 355.795H365.3L327.9 299.695L363.9 246.195H329.8L311.9 277.995L293.5 246.195H258.4L294.2 300.195Z" fill="#454545"/>
<path d="M247.814 21.7265L204.544 96.5822C201.075 102.607 205.457 110.275 212.395 110.275H298.935C305.873 110.275 310.255 102.79 306.786 96.5822L263.515 21.7265C260.047 15.5189 251.283 15.5189 247.814 21.7265Z" fill="#7258A6"/>
<path d="M102.484 21.7265L59.2142 96.5822C55.7453 102.607 60.1271 110.275 67.0649 110.275H153.423C160.361 110.275 164.743 102.79 161.274 96.5822L118.186 21.7265C114.717 15.5189 105.953 15.5189 102.484 21.7265Z" fill="#7258A6"/>
<path d="M118.186 214.525L161.456 139.67C164.925 133.645 160.543 125.977 153.605 125.977H67.0649C60.1271 125.977 55.7453 133.462 59.2142 139.67L102.484 214.525C105.953 220.55 114.717 220.55 118.186 214.525Z" fill="#7258A6"/>
<path d="M263.516 214.525L306.786 139.67C310.255 133.645 305.873 125.977 298.935 125.977H212.577C205.639 125.977 201.258 133.462 204.726 139.67L247.997 214.525C251.283 220.55 260.047 220.55 263.516 214.525Z" fill="#7258A6"/>
<path d="M190.851 88.5488L234.121 13.6931C237.59 7.66815 233.208 0 226.27 0H139.73C132.792 0 128.41 7.48557 131.879 13.6931L175.149 88.5488C178.618 94.5738 187.382 94.5738 190.851 88.5488Z" fill="#AC90E3"/>
</svg>
