<svg width="120" height="28" viewBox="0 0 120 28" fill="none" xmlns="http://www.w3.org/2000/svg">
<g clip-path="url(#clip0_4198_174567)">
<path fill-rule="evenodd" clip-rule="evenodd" d="M54.4972 12.1136C54.5653 12.7272 54.6108 13.409 54.6108 14.1136C54.6108 16.7499 54.1335 18.7954 53.1562 20.2272C52.179 21.6363 50.7926 22.3408 48.9517 22.3408C47.1108 22.3408 45.7017 21.6363 44.7244 20.2272L44.7017 20.2045L54.4972 12.1136ZM53.179 8.09084L43.3608 16.1818C43.2926 15.5454 43.2472 14.8408 43.2472 14.1136C43.2472 11.4772 43.7244 9.43175 44.7017 8.02266C45.679 6.59084 47.0881 5.8863 48.929 5.8863C50.7472 5.8863 52.1563 6.59084 53.1335 8.02266C53.1563 8.06812 53.1562 8.09084 53.179 8.09084ZM60.2017 19.3863C60.7244 17.7727 60.9744 16.0227 60.9744 14.1136C60.9744 12.2045 60.7244 10.4545 60.2017 8.84084C59.7017 7.22721 58.9517 5.81811 57.929 4.6363C56.929 3.43175 55.6563 2.49993 54.1563 1.84084C52.6563 1.15902 50.929 0.818115 48.9517 0.818115C46.9972 0.818115 45.2926 1.15902 43.7926 1.84084C42.2926 2.49993 41.0426 3.43175 40.0199 4.6363C38.9972 5.81811 38.2017 7.22721 37.679 8.84084C37.1563 10.4545 36.9062 12.2045 36.9062 14.1136C36.9062 16.0227 37.1563 17.7727 37.679 19.3863C38.2244 20.9999 38.9972 22.409 40.0199 23.5908C41.0426 24.7727 42.3153 25.7045 43.7926 26.3863C45.2926 27.0681 47.0199 27.409 48.9517 27.409C50.929 27.409 52.679 27.0681 54.1563 26.3863C55.679 25.7045 56.929 24.7727 57.929 23.5908C58.9517 22.409 59.7017 20.9999 60.2017 19.3863ZM77.7926 1.43175H84.7926L75.7926 26.3863H68.929L59.9972 1.43175H67.3153L72.4972 19.8408L77.7926 1.43175ZM93.3153 1.43175H86.7017V26.3863H93.3153V1.43175ZM103.77 13.7499L95.2699 26.3863H103.179L107.52 18.8863L111.815 26.3863H119.929L111.429 13.6363L119.611 1.47721H111.861L107.793 8.70448L103.611 1.47721H95.6335L103.77 13.7499Z" fill="white"/>
<path d="M23.6391 3.06807L18.2527 12.3863C17.8209 13.1363 18.3663 14.0908 19.23 14.0908H30.0027C30.8663 14.0908 31.4118 13.159 30.98 12.3863L25.5936 3.06807C25.1618 2.29534 24.0709 2.29534 23.6391 3.06807Z" fill="#7258A6"/>
<path d="M5.54532 3.06807L0.158961 12.3863C-0.272858 13.1363 0.272597 14.0908 1.13623 14.0908H11.8862C12.7499 14.0908 13.2953 13.159 12.8635 12.3863L7.49987 3.06807C7.06805 2.29534 5.97714 2.29534 5.54532 3.06807Z" fill="#7258A6"/>
<path d="M7.49987 27.0681L12.8862 17.75C13.3181 17 12.7726 16.0454 11.909 16.0454H1.13623C0.272597 16.0454 -0.272858 16.9772 0.158961 17.75L5.54532 27.0681C5.97714 27.8181 7.06805 27.8181 7.49987 27.0681Z" fill="#7258A6"/>
<path d="M25.5943 27.0681L30.9807 17.75C31.4125 17 30.8671 16.0454 30.0034 16.0454H19.2534C18.3898 16.0454 17.8443 16.9772 18.2761 17.75L23.6625 27.0681C24.0716 27.8181 25.1625 27.8181 25.5943 27.0681Z" fill="#7258A6"/>
<path d="M16.5467 11.3863L21.9331 2.06807C22.3649 1.31807 21.8195 0.363525 20.9558 0.363525H10.1831C9.31947 0.363525 8.77402 1.29534 9.20584 2.06807L14.5922 11.3863C15.024 12.1363 16.1149 12.1363 16.5467 11.3863Z" fill="#AC90E3"/>
</g>
<defs>
<clipPath id="clip0_4198_174567">
<rect width="120" height="27.2727" fill="white" transform="translate(0 0.363525)"/>
</clipPath>
</defs>
</svg>
