<?xml version="1.0" standalone="no"?>
<!DOCTYPE svg PUBLIC "-//W3C//DTD SVG 20010904//EN"
 "http://www.w3.org/TR/2001/REC-SVG-20010904/DTD/svg10.dtd">
<svg version="1.0" xmlns="http://www.w3.org/2000/svg"
 width="980.000000pt" height="956.000000pt" viewBox="0 0 980.000000 956.000000"
 preserveAspectRatio="xMidYMid meet">

<g transform="translate(0.000000,956.000000) scale(0.100000,-0.100000)"
fill="#000000" stroke="none">
<path d="M1859 8794 c-392 -423 -878 -946 -1079 -1163 -201 -216 -365 -396
-365 -400 0 -6 2356 -2190 2454 -2275 l22 -20 289 289 c160 160 290 293 290
296 0 3 -305 282 -677 620 -373 338 -694 629 -713 646 l-35 33 3140 -3 3140
-2 95 -32 c218 -74 384 -218 479 -416 82 -170 76 -48 76 -1547 0 -1112 2
-1342 14 -1375 49 -143 150 -241 285 -280 85 -25 203 -17 279 18 84 38 167
122 208 210 l34 72 0 1385 c0 1558 4 1474 -76 1715 -81 245 -184 411 -368 596
-253 254 -519 387 -922 461 -48 8 -879 13 -3288 17 l-3224 6 612 665 c336 366
611 670 611 675 0 6 -128 138 -284 294 l-283 283 -714 -768z"/>
<path d="M273 5981 c-130 -48 -224 -151 -259 -286 -21 -76 -20 -2604 0 -2756
50 -372 202 -676 470 -944 255 -255 515 -390 890 -463 73 -14 401 -16 3152
-19 l3072 -3 -342 -338 c-187 -185 -399 -394 -471 -464 l-130 -127 288 -289
289 -289 486 526 c1159 1252 1547 1674 1550 1680 1 3 -457 465 -1018 1026
l-1020 1020 -285 -285 c-157 -157 -285 -289 -285 -295 0 -5 300 -310 667 -677
l668 -668 -3217 0 c-3461 0 -3273 -3 -3422 49 -190 67 -360 219 -452 406 -85
174 -78 43 -84 1550 l-5 1340 -22 58 c-42 110 -111 184 -221 235 -77 36 -221
42 -299 13z"/>
</g>
</svg>
