<svg width="37" height="36" viewBox="0 0 37 36" fill="none" xmlns="http://www.w3.org/2000/svg">
<g clip-path="url(#clip0_429_117)">
<path d="M7.01873 2.88449C5.53873 4.47738 3.70383 6.44684 2.94496 7.26399C2.18608 8.07738 1.56689 8.75521 1.56689 8.77027C1.56689 8.79286 10.462 17.0171 10.832 17.3372L10.9151 17.4125L12.0062 16.3242C12.6103 15.7217 13.1011 15.2209 13.1011 15.2096C13.1011 15.1983 11.9495 14.1477 10.5451 12.8749C9.13679 11.6021 7.92485 10.5063 7.85312 10.4422L7.72098 10.318L19.5761 10.3293L31.4312 10.3368L31.7899 10.4573C32.6129 10.736 33.2397 11.2782 33.5983 12.0238C33.9079 12.664 33.8853 12.2046 33.8853 17.8493C33.8853 22.0368 33.8928 22.9029 33.9381 23.0272C34.1231 23.5657 34.5045 23.9347 35.0141 24.0816C35.3351 24.1757 35.7806 24.1456 36.0675 24.0138C36.3847 23.8707 36.698 23.5544 36.8528 23.223L36.9812 22.9519V17.7364C36.9812 11.8694 36.9963 12.1857 36.6942 11.2782C36.3884 10.3556 35.9996 9.73052 35.3049 9.03387C34.3497 8.07738 33.3454 7.57654 31.8238 7.29788C31.6426 7.26776 28.5052 7.24893 19.41 7.23387L7.23771 7.21127L9.54832 4.70709C10.8169 3.32885 11.8552 2.18408 11.8552 2.16525C11.8552 2.14265 11.3719 1.64558 10.7829 1.05813L9.71445 -0.00755665L7.01873 2.88449Z" fill="white"/>
<path d="M1.03079 13.4774C0.539971 13.6582 0.185073 14.046 0.0529301 14.5544C-0.0263556 14.8406 -0.0225801 24.3603 0.0529301 24.9326C0.241706 26.3335 0.815583 27.4782 1.82742 28.4875C2.79018 29.4477 3.77181 29.9561 5.18762 30.231C5.46324 30.2837 6.7016 30.2912 17.088 30.3025L28.6864 30.3138L27.3952 31.5866C26.6892 32.2833 25.8887 33.0703 25.6169 33.3339L25.1261 33.8121L26.2134 34.9004L27.3046 35.9887L29.1395 34.008C33.5153 29.2933 34.9802 27.7042 34.9915 27.6816C34.9953 27.6703 33.2661 25.9305 31.148 23.818L27.297 19.977L26.221 21.0502C25.6282 21.6414 25.145 22.1385 25.145 22.1611C25.145 22.1799 26.2776 23.3285 27.6632 24.7105L30.1853 27.2259H18.0395C4.97242 27.2259 5.68222 27.2372 5.11967 27.0414C4.40232 26.7891 3.76048 26.2167 3.41313 25.5126C3.09222 24.8573 3.11864 25.3506 3.09599 19.6757L3.07711 14.6297L2.99405 14.4113C2.83548 13.9971 2.57497 13.7184 2.15966 13.5264C1.86895 13.3908 1.32528 13.3682 1.03079 13.4774Z" fill="white"/>
</g>
<defs>
<clipPath id="clip0_429_117">
<rect width="37" height="36" fill="white"/>
</clipPath>
</defs>
</svg>
